<?xml version="1.0" encoding="UTF-8" standalone="no"?>
<!-- Created with Inkscape (http://www.inkscape.org/) -->

<svg
   xmlns:dc="http://purl.org/dc/elements/1.1/"
   xmlns:cc="http://creativecommons.org/ns#"
   xmlns:rdf="http://www.w3.org/1999/02/22-rdf-syntax-ns#"
   xmlns:svg="http://www.w3.org/2000/svg"
   xmlns="http://www.w3.org/2000/svg"
   xmlns:sodipodi="http://sodipodi.sourceforge.net/DTD/sodipodi-0.dtd"
   xmlns:inkscape="http://www.inkscape.org/namespaces/inkscape"
   width="1000mm"
   height="1000mm"
   viewBox="0 0 3543.3074 3543.3071"
   id="svg2"
   version="1.1"
   inkscape:version="0.91 r13725"
   sodipodi:docname="ekho.svg">
  <defs
     id="defs4" />
  <sodipodi:namedview
     id="base"
     pagecolor="#ffffff"
     bordercolor="#666666"
     borderopacity="1.0"
     inkscape:pageopacity="0.0"
     inkscape:pageshadow="2"
     inkscape:zoom="0.07031441"
     inkscape:cx="-1274.7909"
     inkscape:cy="85.482221"
     inkscape:document-units="px"
     inkscape:current-layer="g4268"
     showgrid="false"
     inkscape:window-width="1440"
     inkscape:window-height="855"
     inkscape:window-x="0"
     inkscape:window-y="1"
     inkscape:window-maximized="1" />
  <metadata
     id="metadata7">
    <rdf:RDF>
      <cc:Work
         rdf:about="">
        <dc:format>image/svg+xml</dc:format>
        <dc:type
           rdf:resource="http://purl.org/dc/dcmitype/StillImage" />
        <dc:title></dc:title>
      </cc:Work>
    </rdf:RDF>
  </metadata>
  <g
     inkscape:label="Calque 1"
     inkscape:groupmode="layer"
     id="layer1"
     transform="translate(0,2490.9449)">
    <g
       transform="matrix(1.25,0,0,-1.25,-1983.9656,2655.4055)"
       inkscape:label="Plan de masse EKHO"
       id="g4268"
       inkscape:export-xdpi="200"
       inkscape:export-ydpi="200">
      <g
         id="g4288"
         transform="translate(2.685349,3.7323318)">
        <g
           id="g4270"
           transform="matrix(0.89528279,0,0,0.8952606,1956.3158,1978.119)">
          <path
             d="m 0,0 -150.33,62.269 -62.268,150.329 62.268,150.33 L 0,425.197 150.33,362.928 212.598,212.598 150.33,62.269 0,0 Z"
             style="fill:none;stroke:#1d1d1b;stroke-width:31.66189766;stroke-linecap:butt;stroke-linejoin:miter;stroke-miterlimit:4;stroke-dasharray:none;stroke-opacity:1"
             id="path4272"
             inkscape:connector-curvature="0" />
        </g>
        <g
           id="g4274"
           transform="matrix(0.89528279,0,0,0.8952606,1939.4389,1892.0095)">
          <path
             d="m 0,0 -75.165,31.134 -31.134,75.165 31.134,75.165 L 0,212.598 75.165,181.464 106.299,106.299 75.165,31.134 0,0 Z"
             style="fill:none;stroke:#1d1d1b;stroke-width:31.66189766;stroke-linecap:butt;stroke-linejoin:miter;stroke-miterlimit:4;stroke-dasharray:none;stroke-opacity:1"
             id="path4276"
             inkscape:connector-curvature="0" />
        </g>
        <g
           id="g4278"
           transform="matrix(0.89528279,0,0,0.8952606,3626.3414,3536.1901)">
          <path
             d="m 0,0 -100.22,41.512 -41.512,100.22 41.512,100.22 L 0,283.465 100.22,241.952 141.732,141.732 100.22,41.512 0,0 Z"
             style="fill:none;stroke:#1d1d1b;stroke-width:31.66189766;stroke-linecap:butt;stroke-linejoin:miter;stroke-miterlimit:4;stroke-dasharray:none;stroke-opacity:1"
             id="path4280"
             inkscape:connector-curvature="0" />
        </g>
        <g
           id="g4282"
           transform="matrix(0.89528279,0,0,0.8952606,3570.5074,3572.2733)">
          <path
             d="m 0,0 -50.11,20.756 -20.756,50.11 20.756,50.11 L 0,141.732 50.11,120.976 70.866,70.866 50.11,20.756 0,0 Z"
             style="fill:#1d1d1b;fill-opacity:1;fill-rule:nonzero;stroke:none"
             id="path4284"
             inkscape:connector-curvature="0" />
        </g>
        <g
           id="g4286"
           transform="matrix(0.89528279,0,0,0.8952606,3570.5074,3572.2733)">
          <path
             d="m 0,0 -50.11,20.756 -20.756,50.11 20.756,50.11 L 0,141.732 50.11,120.976 70.866,70.866 50.11,20.756 0,0 Z"
             style="fill:none;stroke:#1d1d1b;stroke-width:22.16422081;stroke-linecap:butt;stroke-linejoin:miter;stroke-miterlimit:4;stroke-dasharray:none;stroke-opacity:1"
             id="path4288"
             inkscape:connector-curvature="0" />
        </g>
        <g
           id="g4290"
           transform="matrix(0.89528279,0,0,0.8952606,2670.0296,2916.1411)">
          <path
             d="m 0,0 -100.22,41.512 -41.512,100.22 41.512,100.22 L 0,283.465 100.22,241.952 141.732,141.732 100.22,41.512 0,0 Z"
             style="fill:none;stroke:#1d1d1b;stroke-width:31.66189766;stroke-linecap:butt;stroke-linejoin:miter;stroke-miterlimit:4;stroke-dasharray:none;stroke-opacity:1"
             id="path4292"
             inkscape:connector-curvature="0" />
        </g>
        <g
           id="g4294"
           transform="matrix(0.89528279,0,0,0.8952606,2546.6261,2916.1411)">
          <path
             d="m 0,0 -50.11,20.756 -20.756,50.11 20.756,50.11 L 0,141.732 50.11,120.976 70.866,70.866 50.11,20.756 0,0 Z"
             style="fill:#1d1d1b;fill-opacity:1;fill-rule:nonzero;stroke:none"
             id="path4296"
             inkscape:connector-curvature="0" />
        </g>
        <g
           id="g4298"
           transform="matrix(0.89528279,0,0,0.8952606,2546.6261,2916.1411)">
          <path
             d="m 0,0 -50.11,20.756 -20.756,50.11 20.756,50.11 L 0,141.732 50.11,120.976 70.866,70.866 50.11,20.756 0,0 Z"
             style="fill:none;stroke:#1d1d1b;stroke-width:22.16422081;stroke-linecap:butt;stroke-linejoin:miter;stroke-miterlimit:4;stroke-dasharray:none;stroke-opacity:1"
             id="path4300"
             inkscape:connector-curvature="0" />
        </g>
        <g
           id="g4302"
           transform="matrix(0.89528279,0,0,0.8952606,3962.9138,1969.7854)">
          <path
             d="m 0,0 -225.495,93.403 -93.403,225.495 93.403,225.494 L 0,637.795 225.495,544.392 318.898,318.898 225.495,93.403 0,0 Z"
             style="fill:none;stroke:#1d1d1b;stroke-width:31.66189766;stroke-linecap:butt;stroke-linejoin:miter;stroke-miterlimit:4;stroke-dasharray:none;stroke-opacity:1"
             id="path4304"
             inkscape:connector-curvature="0" />
        </g>
        <g
           id="g4306"
           transform="matrix(0.89528279,0,0,0.8952606,3603.8703,2194.8954)">
          <path
             d="m 0,0 -150.33,62.269 -62.268,150.329 62.268,150.33 L 0,425.197 150.33,362.928 212.598,212.598 150.33,62.269 0,0 Z"
             style="fill:none;stroke:#1d1d1b;stroke-width:31.66189766;stroke-linecap:butt;stroke-linejoin:miter;stroke-miterlimit:4;stroke-dasharray:none;stroke-opacity:1"
             id="path4308"
             inkscape:connector-curvature="0" />
        </g>
        <g
           id="g4310"
           transform="matrix(0.89528279,0,0,0.8952606,4139.9246,1856.0836)">
          <path
             d="m 0,0 -100.22,41.512 -41.512,100.22 41.512,100.22 L 0,283.465 100.22,241.952 141.732,141.732 100.22,41.512 0,0 Z"
             style="fill:none;stroke:#1d1d1b;stroke-width:31.66189766;stroke-linecap:butt;stroke-linejoin:miter;stroke-miterlimit:4;stroke-dasharray:none;stroke-opacity:1"
             id="path4312"
             inkscape:connector-curvature="0" />
        </g>
        <g
           id="g4314"
           transform="matrix(0.89528279,0,0,0.8952606,3445.257,2136.8196)">
          <path
             d="m 0,0 -75.165,31.134 -31.134,75.165 31.134,75.165 L 0,212.598 75.165,181.464 106.299,106.299 75.165,31.134 0,0 Z"
             style="fill:none;stroke:#1d1d1b;stroke-width:31.66189766;stroke-linecap:butt;stroke-linejoin:miter;stroke-miterlimit:4;stroke-dasharray:none;stroke-opacity:1"
             id="path4316"
             inkscape:connector-curvature="0" />
        </g>
        <g
           id="g4318"
           transform="matrix(0.89528279,0,0,0.8952606,4083.6431,1890.8239)">
          <path
             d="m 0,0 -50.11,20.756 -20.756,50.11 20.756,50.11 L 0,141.732 50.11,120.976 70.866,70.866 50.11,20.756 0,0 Z"
             style="fill:#1d1d1b;fill-opacity:1;fill-rule:nonzero;stroke:none"
             id="path4320"
             inkscape:connector-curvature="0" />
        </g>
        <g
           id="g4322"
           transform="matrix(0.89528279,0,0,0.8952606,4083.6431,1890.8239)">
          <path
             d="m 0,0 -50.11,20.756 -20.756,50.11 20.756,50.11 L 0,141.732 50.11,120.976 70.866,70.866 50.11,20.756 0,0 Z"
             style="fill:none;stroke:#1d1d1b;stroke-width:22.16422081;stroke-linecap:butt;stroke-linejoin:miter;stroke-miterlimit:4;stroke-dasharray:none;stroke-opacity:1"
             id="path4324"
             inkscape:connector-curvature="0" />
        </g>
        <g
           id="g4326"
           transform="matrix(0.89528279,0,0,0.8952606,4194.2307,2239.68)">
          <path
             d="m 0,0 -50.11,20.756 -20.756,50.11 20.756,50.11 L 0,141.732 50.11,120.976 70.866,70.866 50.11,20.756 0,0 Z"
             style="fill:#1d1d1b;fill-opacity:1;fill-rule:nonzero;stroke:none"
             id="path4328"
             inkscape:connector-curvature="0" />
        </g>
        <g
           id="g4330"
           transform="matrix(0.89528279,0,0,0.8952606,4194.2307,2239.68)">
          <path
             d="m 0,0 -50.11,20.756 -20.756,50.11 20.756,50.11 L 0,141.732 50.11,120.976 70.866,70.866 50.11,20.756 0,0 Z"
             style="fill:none;stroke:#1d1d1b;stroke-width:22.16422081;stroke-linecap:butt;stroke-linejoin:miter;stroke-miterlimit:4;stroke-dasharray:none;stroke-opacity:1"
             id="path4332"
             inkscape:connector-curvature="0" />
        </g>
        <g
           id="g4334"
           transform="matrix(0.89528279,0,0,0.8952606,3503.7754,2437.8596)">
          <path
             d="M 0,0 -30.066,12.454 -42.52,42.52 -30.066,72.586 0,85.039 30.066,72.586 42.52,42.52 30.066,12.454 0,0 Z"
             style="fill:#1d1d1b;fill-opacity:1;fill-rule:nonzero;stroke:none"
             id="path4336"
             inkscape:connector-curvature="0" />
        </g>
        <g
           id="g4338"
           transform="matrix(0.89528279,0,0,0.8952606,3503.7754,2437.8596)">
          <path
             d="M 0,0 -30.066,12.454 -42.52,42.52 -30.066,72.586 0,85.039 30.066,72.586 42.52,42.52 30.066,12.454 0,0 Z"
             style="fill:none;stroke:#1d1d1b;stroke-width:22.16422081;stroke-linecap:butt;stroke-linejoin:miter;stroke-miterlimit:4;stroke-dasharray:none;stroke-opacity:1"
             id="path4340"
             inkscape:connector-curvature="0" />
        </g>
        <g
           id="g4342"
           transform="matrix(0.89528279,0,0,0.8952606,3884.9384,3025.2432)">
          <path
             d="m 0,0 -200.44,83.025 -83.024,200.44 83.024,200.439 L 0,566.929 200.44,483.904 283.465,283.465 200.44,83.025 0,0 Z"
             style="fill:none;stroke:#1d1d1b;stroke-width:31.66189766;stroke-linecap:butt;stroke-linejoin:miter;stroke-miterlimit:4;stroke-dasharray:none;stroke-opacity:1"
             id="path4344"
             inkscape:connector-curvature="0" />
        </g>
        <g
           id="g4346"
           transform="matrix(0.89528279,0,0,0.8952606,3677.4103,2639.6858)">
          <path
             d="m 0,0 -150.33,62.269 -62.268,150.329 62.268,150.33 L 0,425.197 150.33,362.928 212.599,212.598 150.33,62.269 0,0 Z"
             style="fill:none;stroke:#1d1d1b;stroke-width:31.66189766;stroke-linecap:butt;stroke-linejoin:miter;stroke-miterlimit:4;stroke-dasharray:none;stroke-opacity:1"
             id="path4348"
             inkscape:connector-curvature="0" />
        </g>
        <g
           id="g4350"
           transform="matrix(0.89528279,0,0,0.8952606,3677.4103,2938.8214)">
          <path
             d="m 0,0 -110.242,45.664 -45.663,110.242 45.663,110.241 L 0,311.811 110.242,266.147 155.906,155.906 110.242,45.664 0,0 Z"
             style="fill:none;stroke:#1d1d1b;stroke-width:31.66189766;stroke-linecap:butt;stroke-linejoin:miter;stroke-miterlimit:4;stroke-dasharray:none;stroke-opacity:1"
             id="path4352"
             inkscape:connector-curvature="0" />
        </g>
        <g
           id="g4354"
           transform="matrix(0.89528279,0,0,0.8952606,4142.3349,3131.8494)">
          <path
             d="m 0,0 -100.22,41.512 -41.512,100.22 41.512,100.22 L 0,283.465 100.22,241.952 141.732,141.732 100.22,41.512 0,0 Z"
             style="fill:none;stroke:#1d1d1b;stroke-width:31.66189766;stroke-linecap:butt;stroke-linejoin:miter;stroke-miterlimit:4;stroke-dasharray:none;stroke-opacity:1"
             id="path4356"
             inkscape:connector-curvature="0" />
        </g>
        <g
           id="g4358"
           transform="matrix(0.89528279,0,0,0.8952606,3753.2253,3109.4183)">
          <path
             d="M 0,0 -30.066,12.454 -42.52,42.52 -30.066,72.586 0,85.039 30.066,72.586 42.52,42.52 30.066,12.454 0,0 Z"
             style="fill:#1d1d1b;fill-opacity:1;fill-rule:nonzero;stroke:none"
             id="path4360"
             inkscape:connector-curvature="0" />
        </g>
        <g
           id="g4362"
           transform="matrix(0.89528279,0,0,0.8952606,3753.2253,3109.4183)">
          <path
             d="M 0,0 -30.066,12.454 -42.52,42.52 -30.066,72.586 0,85.039 30.066,72.586 42.52,42.52 30.066,12.454 0,0 Z"
             style="fill:none;stroke:#1d1d1b;stroke-width:22.16422081;stroke-linecap:butt;stroke-linejoin:miter;stroke-miterlimit:4;stroke-dasharray:none;stroke-opacity:1"
             id="path4364"
             inkscape:connector-curvature="0" />
        </g>
        <g
           id="g4366"
           transform="matrix(0.89528279,0,0,0.8952606,2378.3839,3281.504)">
          <path
             d="m 0,0 -200.44,83.025 -83.025,200.44 83.025,200.439 L 0,566.929 200.44,483.904 283.465,283.465 200.44,83.025 0,0 Z"
             style="fill:none;stroke:#1d1d1b;stroke-width:31.66189766;stroke-linecap:butt;stroke-linejoin:miter;stroke-miterlimit:4;stroke-dasharray:none;stroke-opacity:1"
             id="path4368"
             inkscape:connector-curvature="0" />
        </g>
        <g
           id="g4370"
           transform="matrix(0.89528279,0,0,0.8952606,2169.3883,3614.6436)">
          <path
             d="m 0,0 -75.165,31.134 -31.134,75.165 31.134,75.165 L 0,212.598 75.165,181.464 106.299,106.299 75.165,31.134 0,0 Z"
             style="fill:none;stroke:#1d1d1b;stroke-width:31.66189766;stroke-linecap:butt;stroke-linejoin:miter;stroke-miterlimit:4;stroke-dasharray:none;stroke-opacity:1"
             id="path4372"
             inkscape:connector-curvature="0" />
        </g>
        <g
           id="g4374"
           transform="matrix(0.89528279,0,0,0.8952606,2578.0533,3342.7314)">
          <path
             d="M 0,0 -30.066,12.454 -42.52,42.52 -30.066,72.586 0,85.04 30.066,72.586 42.52,42.52 30.066,12.454 0,0 Z"
             style="fill:#1d1d1b;fill-opacity:1;fill-rule:nonzero;stroke:none"
             id="path4376"
             inkscape:connector-curvature="0" />
        </g>
        <g
           id="g4378"
           transform="matrix(0.89528279,0,0,0.8952606,2578.0533,3342.7314)">
          <path
             d="M 0,0 -30.066,12.454 -42.52,42.52 -30.066,72.586 0,85.04 30.066,72.586 42.52,42.52 30.066,12.454 0,0 Z"
             style="fill:none;stroke:#1d1d1b;stroke-width:22.16422081;stroke-linecap:butt;stroke-linejoin:miter;stroke-miterlimit:4;stroke-dasharray:none;stroke-opacity:1"
             id="path4380"
             inkscape:connector-curvature="0" />
        </g>
        <g
           id="g4382"
           transform="matrix(0.89528279,0,0,0.8952606,2019.8989,2441.0733)">
          <path
             d="m 0,0 -225.495,93.403 -93.403,225.495 93.403,225.494 L 0,637.795 225.495,544.392 318.898,318.898 225.495,93.403 0,0 Z"
             style="fill:none;stroke:#1d1d1b;stroke-width:31.66189766;stroke-linecap:butt;stroke-linejoin:miter;stroke-miterlimit:4;stroke-dasharray:none;stroke-opacity:1"
             id="path4384"
             inkscape:connector-curvature="0" />
        </g>
        <g
           id="g4386"
           transform="matrix(0.89528279,0,0,0.8952606,2077.7397,2928.8296)">
          <path
             d="m 0,0 -150.33,62.269 -62.268,150.329 62.268,150.33 L 0,425.197 150.33,362.928 212.598,212.598 150.33,62.269 0,0 Z"
             style="fill:none;stroke:#1d1d1b;stroke-width:31.66189766;stroke-linecap:butt;stroke-linejoin:miter;stroke-miterlimit:4;stroke-dasharray:none;stroke-opacity:1"
             id="path4388"
             inkscape:connector-curvature="0" />
        </g>
        <g
           id="g4390"
           transform="matrix(0.89528279,0,0,0.8952606,2287.1716,2599.6825)">
          <path
             d="m 0,0 -100.22,41.512 -41.512,100.22 41.512,100.22 L 0,283.465 100.22,241.952 141.732,141.732 100.22,41.512 0,0 Z"
             style="fill:none;stroke:#1d1d1b;stroke-width:31.66189766;stroke-linecap:butt;stroke-linejoin:miter;stroke-miterlimit:4;stroke-dasharray:none;stroke-opacity:1"
             id="path4392"
             inkscape:connector-curvature="0" />
        </g>
        <g
           id="g4394"
           transform="matrix(0.89528279,0,0,0.8952606,1854.2649,3116.4748)">
          <path
             d="m 0,0 -50.11,20.756 -20.756,50.11 20.756,50.11 L 0,141.732 50.11,120.976 70.866,70.866 50.11,20.756 0,0 Z"
             style="fill:#1d1d1b;fill-opacity:1;fill-rule:nonzero;stroke:none"
             id="path4396"
             inkscape:connector-curvature="0" />
        </g>
        <g
           id="g4398"
           transform="matrix(0.89528279,0,0,0.8952606,1854.2649,3116.4748)">
          <path
             d="m 0,0 -50.11,20.756 -20.756,50.11 20.756,50.11 L 0,141.732 50.11,120.976 70.866,70.866 50.11,20.756 0,0 Z"
             style="fill:none;stroke:#1d1d1b;stroke-width:22.16422081;stroke-linecap:butt;stroke-linejoin:miter;stroke-miterlimit:4;stroke-dasharray:none;stroke-opacity:1"
             id="path4400"
             inkscape:connector-curvature="0" />
        </g>
        <g
           id="g4402"
           transform="matrix(0.89528279,0,0,0.8952606,1924.7327,2431.1739)">
          <path
             d="m 0,0 -50.11,20.756 -20.756,50.11 20.756,50.11 L 0,141.732 50.11,120.976 70.866,70.866 50.11,20.756 0,0 Z"
             style="fill:#1d1d1b;fill-opacity:1;fill-rule:nonzero;stroke:none"
             id="path4404"
             inkscape:connector-curvature="0" />
        </g>
        <g
           id="g4406"
           transform="matrix(0.89528279,0,0,0.8952606,1924.7327,2431.1739)">
          <path
             d="m 0,0 -50.11,20.756 -20.756,50.11 20.756,50.11 L 0,141.732 50.11,120.976 70.866,70.866 50.11,20.756 0,0 Z"
             style="fill:none;stroke:#1d1d1b;stroke-width:22.16422081;stroke-linecap:butt;stroke-linejoin:miter;stroke-miterlimit:4;stroke-dasharray:none;stroke-opacity:1"
             id="path4408"
             inkscape:connector-curvature="0" />
        </g>
        <g
           id="g4410"
           transform="matrix(0.89528279,0,0,0.8952606,2268.0754,3044.3541)">
          <path
             d="M 0,0 -30.066,12.454 -42.52,42.52 -30.066,72.585 0,85.039 30.066,72.585 42.52,42.52 30.066,12.454 0,0 Z"
             style="fill:#1d1d1b;fill-opacity:1;fill-rule:nonzero;stroke:none"
             id="path4412"
             inkscape:connector-curvature="0" />
        </g>
        <g
           id="g4414"
           transform="matrix(0.89528279,0,0,0.8952606,2268.0754,3044.3541)">
          <path
             d="M 0,0 -30.066,12.454 -42.52,42.52 -30.066,72.585 0,85.039 30.066,72.585 42.52,42.52 30.066,12.454 0,0 Z"
             style="fill:none;stroke:#1d1d1b;stroke-width:22.16422081;stroke-linecap:butt;stroke-linejoin:miter;stroke-miterlimit:4;stroke-dasharray:none;stroke-opacity:1"
             id="path4416"
             inkscape:connector-curvature="0" />
        </g>
        <g
           id="g4418"
           transform="matrix(0.89528279,0,0,0.8952606,3504.4505,1575.488)">
          <path
             d="m 0,0 -175.385,72.647 -72.646,175.384 72.646,175.385 L 0,496.063 175.385,423.416 248.031,248.031 175.385,72.647 0,0 Z"
             style="fill:none;stroke:#1d1d1b;stroke-width:31.66189766;stroke-linecap:butt;stroke-linejoin:miter;stroke-miterlimit:4;stroke-dasharray:none;stroke-opacity:1"
             id="path4420"
             inkscape:connector-curvature="0" />
        </g>
        <g
           id="g4422"
           transform="matrix(0.89528279,0,0,0.8952606,3803.8825,1661.758)">
          <path
             d="m 0,0 -100.22,41.512 -41.512,100.22 41.512,100.22 L 0,283.465 100.22,241.952 141.732,141.732 100.22,41.512 0,0 Z"
             style="fill:none;stroke:#1d1d1b;stroke-width:31.66189766;stroke-linecap:butt;stroke-linejoin:miter;stroke-miterlimit:4;stroke-dasharray:none;stroke-opacity:1"
             id="path4424"
             inkscape:connector-curvature="0" />
        </g>
        <g
           id="g4426"
           transform="matrix(0.89528279,0,0,0.8952606,3118.2914,1918.5919)">
          <path
             d="m 0,0 -100.22,41.512 -41.512,100.22 41.512,100.22 L 0,283.465 100.22,241.952 141.732,141.732 100.22,41.512 0,0 Z"
             style="fill:none;stroke:#1d1d1b;stroke-width:31.66189766;stroke-linecap:butt;stroke-linejoin:miter;stroke-miterlimit:4;stroke-dasharray:none;stroke-opacity:1"
             id="path4428"
             inkscape:connector-curvature="0" />
        </g>
        <g
           id="g4430"
           transform="matrix(0.89528279,0,0,0.8952606,3313.0501,1510.5357)">
          <path
             d="m 0,0 -75.165,31.134 -31.134,75.165 31.134,75.165 L 0,212.598 75.165,181.464 106.299,106.299 75.165,31.134 0,0 Z"
             style="fill:none;stroke:#1d1d1b;stroke-width:31.66189766;stroke-linecap:butt;stroke-linejoin:miter;stroke-miterlimit:4;stroke-dasharray:none;stroke-opacity:1"
             id="path4432"
             inkscape:connector-curvature="0" />
        </g>
        <g
           id="g4434"
           transform="matrix(0.89528279,0,0,0.8952606,3299.2127,1848.508)">
          <path
             d="m 0,0 -75.165,31.134 -31.134,75.165 31.134,75.165 L 0,212.598 75.165,181.464 106.299,106.299 75.165,31.134 0,0 Z"
             style="fill:none;stroke:#1d1d1b;stroke-width:31.66189766;stroke-linecap:butt;stroke-linejoin:miter;stroke-miterlimit:4;stroke-dasharray:none;stroke-opacity:1"
             id="path4436"
             inkscape:connector-curvature="0" />
        </g>
        <g
           id="g4438"
           transform="matrix(0.89528279,0,0,0.8952606,3225.4747,2092.329)">
          <path
             d="m 0,0 -50.11,20.756 -20.756,50.11 20.756,50.11 L 0,141.732 50.11,120.976 70.866,70.866 50.11,20.756 0,0 Z"
             style="fill:#1d1d1b;fill-opacity:1;fill-rule:nonzero;stroke:none"
             id="path4440"
             inkscape:connector-curvature="0" />
        </g>
        <g
           id="g4442"
           transform="matrix(0.89528279,0,0,0.8952606,3225.4747,2092.329)">
          <path
             d="m 0,0 -50.11,20.756 -20.756,50.11 20.756,50.11 L 0,141.732 50.11,120.976 70.866,70.866 50.11,20.756 0,0 Z"
             style="fill:none;stroke:#1d1d1b;stroke-width:22.16422081;stroke-linecap:butt;stroke-linejoin:miter;stroke-miterlimit:4;stroke-dasharray:none;stroke-opacity:1"
             id="path4444"
             inkscape:connector-curvature="0" />
        </g>
        <g
           id="g4446"
           transform="matrix(0.89528279,0,0,0.8952606,2987.2208,2023.3588)">
          <path
             d="M 0,0 -30.066,12.454 -42.52,42.52 -30.066,72.586 0,85.039 30.066,72.586 42.52,42.52 30.066,12.454 0,0 Z"
             style="fill:#1d1d1b;fill-opacity:1;fill-rule:nonzero;stroke:none"
             id="path4448"
             inkscape:connector-curvature="0" />
        </g>
        <g
           id="g4450"
           transform="matrix(0.89528279,0,0,0.8952606,2987.2208,2023.3588)">
          <path
             d="M 0,0 -30.066,12.454 -42.52,42.52 -30.066,72.586 0,85.039 30.066,72.586 42.52,42.52 30.066,12.454 0,0 Z"
             style="fill:none;stroke:#1d1d1b;stroke-width:22.16422081;stroke-linecap:butt;stroke-linejoin:miter;stroke-miterlimit:4;stroke-dasharray:none;stroke-opacity:1"
             id="path4452"
             inkscape:connector-curvature="0" />
        </g>
        <g
           id="g4454"
           transform="matrix(0.89528279,0,0,0.8952606,3687.2022,1664.3092)">
          <path
             d="M 0,0 -30.066,12.454 -42.52,42.52 -30.066,72.586 0,85.039 30.066,72.586 42.52,42.52 30.066,12.454 0,0 Z"
             style="fill:#1d1d1b;fill-opacity:1;fill-rule:nonzero;stroke:none"
             id="path4456"
             inkscape:connector-curvature="0" />
        </g>
        <g
           id="g4458"
           transform="matrix(0.89528279,0,0,0.8952606,3687.2022,1664.3092)">
          <path
             d="M 0,0 -30.066,12.454 -42.52,42.52 -30.066,72.586 0,85.039 30.066,72.586 42.52,42.52 30.066,12.454 0,0 Z"
             style="fill:none;stroke:#1d1d1b;stroke-width:22.16422081;stroke-linecap:butt;stroke-linejoin:miter;stroke-miterlimit:4;stroke-dasharray:none;stroke-opacity:1"
             id="path4460"
             inkscape:connector-curvature="0" />
        </g>
        <g
           id="g4462"
           transform="matrix(0.89528279,0,0,0.8952606,4078.888,2658.7454)">
          <path
             d="m 0,0 -100.22,41.512 -41.512,100.22 41.512,100.22 L 0,283.465 100.22,241.952 141.732,141.732 100.22,41.512 0,0 Z"
             style="fill:none;stroke:#1d1d1b;stroke-width:31.66189766;stroke-linecap:butt;stroke-linejoin:miter;stroke-miterlimit:4;stroke-dasharray:none;stroke-opacity:1"
             id="path4464"
             inkscape:connector-curvature="0" />
        </g>
        <g
           id="g4466"
           transform="matrix(0.89528279,0,0,0.8952606,4205.7802,2793.5215)">
          <path
             d="m 0,0 -50.11,20.756 -20.756,50.11 20.756,50.11 L 0,141.732 50.11,120.976 70.866,70.866 50.11,20.756 0,0 Z"
             style="fill:#1d1d1b;fill-opacity:1;fill-rule:nonzero;stroke:none"
             id="path4468"
             inkscape:connector-curvature="0" />
        </g>
        <g
           id="g4470"
           transform="matrix(0.89528279,0,0,0.8952606,4205.7802,2793.5215)">
          <path
             d="m 0,0 -50.11,20.756 -20.756,50.11 20.756,50.11 L 0,141.732 50.11,120.976 70.866,70.866 50.11,20.756 0,0 Z"
             style="fill:none;stroke:#1d1d1b;stroke-width:22.16422081;stroke-linecap:butt;stroke-linejoin:miter;stroke-miterlimit:4;stroke-dasharray:none;stroke-opacity:1"
             id="path4472"
             inkscape:connector-curvature="0" />
        </g>
        <g
           id="g4474"
           transform="matrix(0.89528279,0,0,0.8952606,3945.1335,2755.4554)">
          <path
             d="M 0,0 -30.066,12.454 -42.52,42.52 -30.066,72.586 0,85.039 30.066,72.586 42.52,42.52 30.066,12.454 0,0 Z"
             style="fill:#1d1d1b;fill-opacity:1;fill-rule:nonzero;stroke:none"
             id="path4476"
             inkscape:connector-curvature="0" />
        </g>
        <g
           id="g4478"
           transform="matrix(0.89528279,0,0,0.8952606,3945.1335,2755.4554)">
          <path
             d="M 0,0 -30.066,12.454 -42.52,42.52 -30.066,72.586 0,85.039 30.066,72.586 42.52,42.52 30.066,12.454 0,0 Z"
             style="fill:none;stroke:#1d1d1b;stroke-width:22.16422081;stroke-linecap:butt;stroke-linejoin:miter;stroke-miterlimit:4;stroke-dasharray:none;stroke-opacity:1"
             id="path4480"
             inkscape:connector-curvature="0" />
        </g>
        <g
           id="g4482"
           transform="matrix(0.89528279,0,0,0.8952606,3220.0534,3122.8993)">
          <path
             d="m 0,0 -225.495,93.403 -93.403,225.495 93.403,225.494 L 0,637.795 225.495,544.392 318.898,318.898 225.495,93.403 0,0 Z"
             style="fill:none;stroke:#1d1d1b;stroke-width:31.66189766;stroke-linecap:butt;stroke-linejoin:miter;stroke-miterlimit:4;stroke-dasharray:none;stroke-opacity:1"
             id="path4484"
             inkscape:connector-curvature="0" />
        </g>
        <g
           id="g4486"
           transform="matrix(0.89528279,0,0,0.8952606,3192.644,3558.1692)">
          <path
             d="m 0,0 -150.33,62.269 -62.269,150.329 62.269,150.33 L 0,425.197 150.33,362.928 212.598,212.598 150.33,62.269 0,0 Z"
             style="fill:none;stroke:#1d1d1b;stroke-width:31.66189766;stroke-linecap:butt;stroke-linejoin:miter;stroke-miterlimit:4;stroke-dasharray:none;stroke-opacity:1"
             id="path4488"
             inkscape:connector-curvature="0" />
        </g>
        <g
           id="g4490"
           transform="matrix(0.89528279,0,0,0.8952606,2828.8104,3620.0841)">
          <path
             d="m 0,0 -100.22,41.512 -41.512,100.22 41.512,100.22 L 0,283.465 100.22,241.952 141.732,141.732 100.22,41.512 0,0 Z"
             style="fill:none;stroke:#1d1d1b;stroke-width:31.66189766;stroke-linecap:butt;stroke-linejoin:miter;stroke-miterlimit:4;stroke-dasharray:none;stroke-opacity:1"
             id="path4492"
             inkscape:connector-curvature="0" />
        </g>
        <g
           id="g4494"
           transform="matrix(0.89528279,0,0,0.8952606,3353.1131,3219.0077)">
          <path
             d="m 0,0 -100.22,41.512 -41.512,100.22 41.512,100.22 L 0,283.465 100.22,241.952 141.732,141.732 100.22,41.512 0,0 Z"
             style="fill:none;stroke:#1d1d1b;stroke-width:31.66189766;stroke-linecap:butt;stroke-linejoin:miter;stroke-miterlimit:4;stroke-dasharray:none;stroke-opacity:1"
             id="path4496"
             inkscape:connector-curvature="0" />
        </g>
        <g
           id="g4498"
           transform="matrix(0.89528279,0,0,0.8952606,2968.2726,3746.9715)">
          <path
             d="m 0,0 -50.11,20.756 -20.756,50.11 20.756,50.11 L 0,141.732 50.11,120.976 70.866,70.866 50.11,20.756 0,0 Z"
             style="fill:#1d1d1b;fill-opacity:1;fill-rule:nonzero;stroke:none"
             id="path4500"
             inkscape:connector-curvature="0" />
        </g>
        <g
           id="g4502"
           transform="matrix(0.89528279,0,0,0.8952606,2968.2726,3746.9715)">
          <path
             d="m 0,0 -50.11,20.756 -20.756,50.11 20.756,50.11 L 0,141.732 50.11,120.976 70.866,70.866 50.11,20.756 0,0 Z"
             style="fill:none;stroke:#1d1d1b;stroke-width:22.16422081;stroke-linecap:butt;stroke-linejoin:miter;stroke-miterlimit:4;stroke-dasharray:none;stroke-opacity:1"
             id="path4504"
             inkscape:connector-curvature="0" />
        </g>
        <g
           id="g4506"
           transform="matrix(0.89528279,0,0,0.8952606,3124.8872,3112.9998)">
          <path
             d="m 0,0 -50.11,20.756 -20.756,50.11 20.756,50.11 L 0,141.732 50.11,120.976 70.866,70.866 50.11,20.756 0,0 Z"
             style="fill:#1d1d1b;fill-opacity:1;fill-rule:nonzero;stroke:none"
             id="path4508"
             inkscape:connector-curvature="0" />
        </g>
        <g
           id="g4510"
           transform="matrix(0.89528279,0,0,0.8952606,3124.8872,3112.9998)">
          <path
             d="m 0,0 -50.11,20.756 -20.756,50.11 20.756,50.11 L 0,141.732 50.11,120.976 70.866,70.866 50.11,20.756 0,0 Z"
             style="fill:none;stroke:#1d1d1b;stroke-width:22.16422081;stroke-linecap:butt;stroke-linejoin:miter;stroke-miterlimit:4;stroke-dasharray:none;stroke-opacity:1"
             id="path4512"
             inkscape:connector-curvature="0" />
        </g>
        <g
           id="g4514"
           transform="matrix(0.89528279,0,0,0.8952606,3172.6761,3627.909)">
          <path
             d="M 0,0 -30.066,12.454 -42.52,42.52 -30.066,72.586 0,85.039 30.066,72.586 42.52,42.52 30.066,12.454 0,0 Z"
             style="fill:#1d1d1b;fill-opacity:1;fill-rule:nonzero;stroke:none"
             id="path4516"
             inkscape:connector-curvature="0" />
        </g>
        <g
           id="g4518"
           transform="matrix(0.89528279,0,0,0.8952606,3172.6761,3627.909)">
          <path
             d="M 0,0 -30.066,12.454 -42.52,42.52 -30.066,72.586 0,85.039 30.066,72.586 42.52,42.52 30.066,12.454 0,0 Z"
             style="fill:none;stroke:#1d1d1b;stroke-width:22.16422081;stroke-linecap:butt;stroke-linejoin:miter;stroke-miterlimit:4;stroke-dasharray:none;stroke-opacity:1"
             id="path4520"
             inkscape:connector-curvature="0" />
        </g>
        <g
           id="g4522"
           transform="matrix(0.89528279,0,0,0.8952606,2672.7155,1453.219)">
          <path
             d="m 0,0 -225.495,93.403 -93.403,225.495 93.403,225.494 L 0,637.795 225.495,544.392 318.898,318.898 225.495,93.403 0,0 Z"
             style="fill:none;stroke:#1d1d1b;stroke-width:31.66189766;stroke-linecap:butt;stroke-linejoin:miter;stroke-miterlimit:4;stroke-dasharray:none;stroke-opacity:1"
             id="path4524"
             inkscape:connector-curvature="0" />
        </g>
        <g
           id="g4526"
           transform="matrix(0.89528279,0,0,0.8952606,2398.4599,1955.4)">
          <path
             d="m 0,0 -150.33,62.269 -62.268,150.329 62.268,150.33 L 0,425.197 150.33,362.928 212.598,212.598 150.33,62.269 0,0 Z"
             style="fill:none;stroke:#1d1d1b;stroke-width:31.66189766;stroke-linecap:butt;stroke-linejoin:miter;stroke-miterlimit:4;stroke-dasharray:none;stroke-opacity:1"
             id="path4528"
             inkscape:connector-curvature="0" />
        </g>
        <g
           id="g4530"
           transform="matrix(0.89528279,0,0,0.8952606,2420.9251,1820.3671)">
          <path
             d="m 0,0 -100.22,41.512 -41.512,100.22 41.512,100.22 L 0,283.465 100.22,241.952 141.732,141.732 100.22,41.512 0,0 Z"
             style="fill:none;stroke:#1d1d1b;stroke-width:31.66189766;stroke-linecap:butt;stroke-linejoin:miter;stroke-miterlimit:4;stroke-dasharray:none;stroke-opacity:1"
             id="path4532"
             inkscape:connector-curvature="0" />
        </g>
        <g
           id="g4534"
           transform="matrix(0.89528279,0,0,0.8952606,2908.125,1796.9353)">
          <path
             d="m 0,0 -50.11,20.756 -20.756,50.11 20.756,50.11 L 0,141.732 50.11,120.976 70.866,70.866 50.11,20.756 0,0 Z"
             style="fill:#1d1d1b;fill-opacity:1;fill-rule:nonzero;stroke:none"
             id="path4536"
             inkscape:connector-curvature="0" />
        </g>
        <g
           id="g4538"
           transform="matrix(0.89528279,0,0,0.8952606,2908.125,1796.9353)">
          <path
             d="m 0,0 -50.11,20.756 -20.756,50.11 20.756,50.11 L 0,141.732 50.11,120.976 70.866,70.866 50.11,20.756 0,0 Z"
             style="fill:none;stroke:#1d1d1b;stroke-width:22.16422081;stroke-linecap:butt;stroke-linejoin:miter;stroke-miterlimit:4;stroke-dasharray:none;stroke-opacity:1"
             id="path4540"
             inkscape:connector-curvature="0" />
        </g>
        <g
           id="g4542"
           transform="matrix(0.89528279,0,0,0.8952606,2387.2118,2440.777)">
          <path
             d="M 0,0 -30.066,12.454 -42.52,42.52 -30.066,72.586 0,85.039 30.066,72.586 42.52,42.52 30.066,12.454 0,0 Z"
             style="fill:#1d1d1b;fill-opacity:1;fill-rule:nonzero;stroke:none"
             id="path4544"
             inkscape:connector-curvature="0" />
        </g>
        <g
           id="g4546"
           transform="matrix(0.89528279,0,0,0.8952606,2387.2118,2440.777)">
          <path
             d="M 0,0 -30.066,12.454 -42.52,42.52 -30.066,72.586 0,85.039 30.066,72.586 42.52,42.52 30.066,12.454 0,0 Z"
             style="fill:none;stroke:#1d1d1b;stroke-width:22.16422081;stroke-linecap:butt;stroke-linejoin:miter;stroke-miterlimit:4;stroke-dasharray:none;stroke-opacity:1"
             id="path4548"
             inkscape:connector-curvature="0" />
        </g>
        <g
           id="g4550"
           transform="matrix(0.89528279,0,0,0.8952606,2287.1716,1892.0095)">
          <path
             d="M 0,0 -30.066,12.454 -42.52,42.52 -30.066,72.586 0,85.039 30.066,72.586 42.52,42.52 30.066,12.454 0,0 Z"
             style="fill:#1d1d1b;fill-opacity:1;fill-rule:nonzero;stroke:none"
             id="path4552"
             inkscape:connector-curvature="0" />
        </g>
        <g
           id="g4554"
           transform="matrix(0.89528279,0,0,0.8952606,2287.1716,1892.0095)">
          <path
             d="M 0,0 -30.066,12.454 -42.52,42.52 -30.066,72.586 0,85.039 30.066,72.586 42.52,42.52 30.066,12.454 0,0 Z"
             style="fill:none;stroke:#1d1d1b;stroke-width:22.16422081;stroke-linecap:butt;stroke-linejoin:miter;stroke-miterlimit:4;stroke-dasharray:none;stroke-opacity:1"
             id="path4556"
             inkscape:connector-curvature="0" />
        </g>
        <g
           id="g4558"
           transform="matrix(0.89528279,0,0,0.8952606,2387.2118,2204.6848)">
          <path
             d="m 0,0 -110.242,45.664 -45.664,110.242 45.664,110.241 L 0,311.811 110.242,266.147 155.906,155.906 110.242,45.664 0,0 Z"
             style="fill:none;stroke:#1d1d1b;stroke-width:31.66189766;stroke-linecap:butt;stroke-linejoin:miter;stroke-miterlimit:4;stroke-dasharray:none;stroke-opacity:1"
             id="path4560"
             inkscape:connector-curvature="0" />
        </g>
        <g
           id="g4562"
           transform="matrix(0.89528279,0,0,0.8952606,3002.4384,2476.3785)">
          <path
             d="m 0,0 -200.44,83.025 -83.025,200.439 83.025,200.44 L 0,566.929 200.44,483.904 283.465,283.464 200.44,83.025 0,0 Z"
             style="fill:none;stroke:#1d1d1b;stroke-width:31.66189766;stroke-linecap:butt;stroke-linejoin:miter;stroke-miterlimit:4;stroke-dasharray:none;stroke-opacity:1"
             id="path4564"
             inkscape:connector-curvature="0" />
        </g>
        <g
           id="g4566"
           transform="matrix(0.89528279,0,0,0.8952606,3177.1294,2870.7798)">
          <path
             d="M 0,0 -30.066,12.454 -42.52,42.52 -30.066,72.586 0,85.039 30.066,72.586 42.52,42.52 30.066,12.454 0,0 Z"
             style="fill:#1d1d1b;fill-opacity:1;fill-rule:nonzero;stroke:none"
             id="path4568"
             inkscape:connector-curvature="0" />
        </g>
        <g
           id="g4570"
           transform="matrix(0.89528279,0,0,0.8952606,3177.1294,2870.7798)">
          <path
             d="M 0,0 -30.066,12.454 -42.52,42.52 -30.066,72.586 0,85.039 30.066,72.586 42.52,42.52 30.066,12.454 0,0 Z"
             style="fill:none;stroke:#1d1d1b;stroke-width:22.16422081;stroke-linecap:butt;stroke-linejoin:miter;stroke-miterlimit:4;stroke-dasharray:none;stroke-opacity:1"
             id="path4572"
             inkscape:connector-curvature="0" />
        </g>
        <g
           id="g4574"
           transform="matrix(0.89528279,0,0,0.8952606,2776.6029,2377.3333)">
          <path
             d="m 0,0 -110.242,45.664 -45.664,110.242 45.664,110.241 L 0,311.811 110.242,266.147 155.906,155.906 110.242,45.664 0,0 Z"
             style="fill:none;stroke:#1d1d1b;stroke-width:31.66189766;stroke-linecap:butt;stroke-linejoin:miter;stroke-miterlimit:4;stroke-dasharray:none;stroke-opacity:1"
             id="path4576"
             inkscape:connector-curvature="0" />
        </g>
      </g>
    </g>
  </g>
</svg>
